<svg xmlns="http://www.w3.org/2000/svg" width="900" height="420" viewBox="0 0 900 420">
<rect width="100%" height="100%" fill="white"/>
<text x="450.0" y="24" text-anchor="middle" font-family="Arial" font-size="18">RoboCasa Autoresearch Progress</text>
<line x1="70" y1="35" x2="70" y2="360" stroke="#333"/>
<line x1="70" y1="360" x2="870" y2="360" stroke="#333"/>
<text x="450.0" y="402" text-anchor="middle" font-family="Arial" font-size="13">Experiment #</text>
<text x="18" y="197.5" transform="rotate(-90 18 197.5)" text-anchor="middle" font-family="Arial" font-size="13">Eval success rate</text>
<line x1="66" y1="360.0" x2="870" y2="360.0" stroke="#eee"/>
<text x="62" y="364.0" text-anchor="end" font-family="Arial" font-size="11">0.00</text>
<line x1="66" y1="295.0" x2="870" y2="295.0" stroke="#eee"/>
<text x="62" y="299.0" text-anchor="end" font-family="Arial" font-size="11">0.20</text>
<line x1="66" y1="230.0" x2="870" y2="230.0" stroke="#eee"/>
<text x="62" y="234.0" text-anchor="end" font-family="Arial" font-size="11">0.40</text>
<line x1="66" y1="165.0" x2="870" y2="165.0" stroke="#eee"/>
<text x="62" y="169.0" text-anchor="end" font-family="Arial" font-size="11">0.60</text>
<line x1="66" y1="100.0" x2="870" y2="100.0" stroke="#eee"/>
<text x="62" y="104.0" text-anchor="end" font-family="Arial" font-size="11">0.80</text>
<line x1="66" y1="35.0" x2="870" y2="35.0" stroke="#eee"/>
<text x="62" y="39.0" text-anchor="end" font-family="Arial" font-size="11">1.00</text>
<polyline fill="none" stroke="#238b45" stroke-width="2" points="70.0,360.0 99.6,313.6 129.3,360.0 158.9,313.6 188.5,220.7 218.1,220.7 247.8,174.3 277.4,220.7 307.0,267.1 336.7,267.1 366.3,267.1 395.9,220.7 425.6,360.0 455.2,220.7 484.8,267.1 514.4,174.3 544.1,360.0 573.7,313.6 603.3,267.1 633.0,174.3 662.6,127.9 692.2,174.3 721.9,174.3 751.5,174.3 781.1,127.9 810.7,174.3 840.4,127.9 870.0,174.3"/>
<circle cx="70.0" cy="360.0" r="5" fill="#bbb" stroke="#333"/>
<text x="77.0" y="353.0" font-family="Arial" font-size="10" fill="#333">flow chunk 16 commit 4 chunk_decay 0</text>
<circle cx="99.6" cy="313.6" r="5" fill="#2ecc71" stroke="#333"/>
<text x="106.6" y="306.6" font-family="Arial" font-size="10" fill="#333">direct BC chunk 16 commit 4 chunk_de</text>
<circle cx="129.3" cy="360.0" r="5" fill="#bbb" stroke="#333"/>
<text x="136.3" y="353.0" font-family="Arial" font-size="10" fill="#333">direct BC chunk 8 commit 2 chunk_dec</text>
<circle cx="158.9" cy="313.6" r="5" fill="#bbb" stroke="#333"/>
<text x="165.9" y="306.6" font-family="Arial" font-size="10" fill="#333">eval accepted exp2 checkpoint with c</text>
<circle cx="188.5" cy="220.7" r="5" fill="#2ecc71" stroke="#333"/>
<text x="195.5" y="213.7" font-family="Arial" font-size="10" fill="#333">eval accepted exp2 checkpoint with c</text>
<circle cx="218.1" cy="220.7" r="5" fill="#bbb" stroke="#333"/>
<text x="225.1" y="213.7" font-family="Arial" font-size="10" fill="#333">eval accepted exp2 checkpoint with c</text>
<circle cx="247.8" cy="174.3" r="5" fill="#2ecc71" stroke="#333"/>
<text x="254.8" y="167.3" font-family="Arial" font-size="10" fill="#333">eval accepted exp2 checkpoint with c</text>
<circle cx="277.4" cy="220.7" r="5" fill="#bbb" stroke="#333"/>
<text x="284.4" y="213.7" font-family="Arial" font-size="10" fill="#333">direct BC chunk 24 commit 24 chunk_d</text>
<circle cx="307.0" cy="267.1" r="5" fill="#bbb" stroke="#333"/>
<text x="314.0" y="260.1" font-family="Arial" font-size="10" fill="#333">ACT temporal ensemble commit 1 decay</text>
<circle cx="336.7" cy="267.1" r="5" fill="#bbb" stroke="#333"/>
<text x="343.7" y="260.1" font-family="Arial" font-size="10" fill="#333">ACT temporal ensemble commit 2 decay</text>
<circle cx="366.3" cy="267.1" r="5" fill="#bbb" stroke="#333"/>
<text x="373.3" y="260.1" font-family="Arial" font-size="10" fill="#333">ACT temporal ensemble commit 4 decay</text>
<circle cx="395.9" cy="220.7" r="5" fill="#bbb" stroke="#333"/>
<text x="402.9" y="213.7" font-family="Arial" font-size="10" fill="#333">ACT temporal ensemble commit 8 decay</text>
<circle cx="425.6" cy="360.0" r="5" fill="#bbb" stroke="#333"/>
<text x="432.6" y="353.0" font-family="Arial" font-size="10" fill="#333">retrain BC chunk16 decay0.9 commit16</text>
<circle cx="455.2" cy="220.7" r="5" fill="#bbb" stroke="#333"/>
<text x="462.2" y="213.7" font-family="Arial" font-size="10" fill="#333">retrain BC chunk16 decay1.0 commit16</text>
<circle cx="484.8" cy="267.1" r="5" fill="#bbb" stroke="#333"/>
<text x="491.8" y="260.1" font-family="Arial" font-size="10" fill="#333">retrain BC chunk16 width1024 commit1</text>
<circle cx="514.4" cy="174.3" r="5" fill="#bbb" stroke="#333"/>
<text x="521.4" y="167.3" font-family="Arial" font-size="10" fill="#333">retrain BC chunk16 seed1 commit16</text>
<circle cx="544.1" cy="360.0" r="5" fill="#bbb" stroke="#333"/>
<text x="551.1" y="353.0" font-family="Arial" font-size="10" fill="#333">seed1 checkpoint commit 8</text>
<circle cx="573.7" cy="313.6" r="5" fill="#bbb" stroke="#333"/>
<text x="580.7" y="306.6" font-family="Arial" font-size="10" fill="#333">seed1 checkpoint commit 12</text>
<circle cx="603.3" cy="267.1" r="5" fill="#bbb" stroke="#333"/>
<text x="610.3" y="260.1" font-family="Arial" font-size="10" fill="#333">seed1 checkpoint commit 14</text>
<circle cx="633.0" cy="174.3" r="5" fill="#bbb" stroke="#333"/>
<text x="640.0" y="167.3" font-family="Arial" font-size="10" fill="#333">seed1 checkpoint temporal ensemble c</text>
<circle cx="662.6" cy="127.9" r="5" fill="#2ecc71" stroke="#333"/>
<text x="669.6" y="120.9" font-family="Arial" font-size="10" fill="#333">action-chunk model ensemble seed0+se</text>
<circle cx="692.2" cy="174.3" r="5" fill="#bbb" stroke="#333"/>
<text x="699.2" y="167.3" font-family="Arial" font-size="10" fill="#333">action-chunk model ensemble seed0+se</text>
<circle cx="721.9" cy="174.3" r="5" fill="#bbb" stroke="#333"/>
<text x="728.9" y="167.3" font-family="Arial" font-size="10" fill="#333">action-chunk model ensemble seed0+se</text>
<circle cx="751.5" cy="174.3" r="5" fill="#bbb" stroke="#333"/>
<text x="758.5" y="167.3" font-family="Arial" font-size="10" fill="#333">action-chunk model ensemble seed0+wi</text>
<circle cx="781.1" cy="127.9" r="5" fill="#bbb" stroke="#333"/>
<text x="788.1" y="120.9" font-family="Arial" font-size="10" fill="#333">ensemble seed0+seed1 weights 0.4/0.6</text>
<circle cx="810.7" cy="174.3" r="5" fill="#bbb" stroke="#333"/>
<text x="817.7" y="167.3" font-family="Arial" font-size="10" fill="#333">ensemble seed0+seed1 weights 0.6/0.4</text>
<circle cx="840.4" cy="127.9" r="5" fill="#bbb" stroke="#333"/>
<text x="847.4" y="120.9" font-family="Arial" font-size="10" fill="#333">ensemble seed0+seed1+width1024 weigh</text>
<circle cx="870.0" cy="174.3" r="5" fill="#bbb" stroke="#333"/>
<text x="877.0" y="167.3" font-family="Arial" font-size="10" fill="#333">ensemble seed0+seed1+decay1.0 weight</text>
</svg>